<svg width="29" height="29" viewBox="0 0 29 29" fill="none" xmlns="http://www.w3.org/2000/svg">
<path d="M20.8547 14.9811C20.8437 13.1162 21.6887 11.7107 23.3949 10.6744C22.4406 9.30723 20.9969 8.55527 19.0937 8.41035C17.2918 8.26816 15.3203 9.46035 14.5984 9.46035C13.8355 9.46035 12.091 8.45957 10.7184 8.45957C7.88555 8.50332 4.875 10.7182 4.875 15.2244C4.875 16.5561 5.11836 17.9314 5.60508 19.3479C6.25586 21.2127 8.60195 25.7818 11.0492 25.708C12.3289 25.6779 13.234 24.8002 14.8992 24.8002C16.5152 24.8002 17.352 25.708 18.7793 25.708C21.2484 25.6725 23.3703 21.5189 23.9883 19.6486C20.677 18.0873 20.8547 15.0768 20.8547 14.9811ZM17.9809 6.64121C19.3672 4.99512 19.2414 3.49668 19.2004 2.95801C17.9754 3.0291 16.559 3.79199 15.7523 4.72988C14.8637 5.73613 14.3414 6.98027 14.4535 8.38301C15.777 8.48418 16.9855 7.80332 17.9809 6.64121Z" fill="white"/>
</svg>
