<svg width="43" height="43" viewBox="0 0 43 43" fill="none" xmlns="http://www.w3.org/2000/svg">
<path d="M11.7504 9.66652H27.6504C28.0221 11.4876 29.0568 13.1058 30.5538 14.2073C32.0508 15.3089 33.9035 15.8153 35.7527 15.6285C37.6019 15.4417 39.3159 14.575 40.5623 13.1963C41.8088 11.8175 42.4989 10.0251 42.4989 8.16652C42.4989 6.3079 41.8088 4.5155 40.5623 3.13679C39.3159 1.75809 37.6019 0.891307 35.7527 0.7045C33.9035 0.517692 32.0508 1.02416 30.5538 2.12572C29.0568 3.22729 28.0221 4.84546 27.6504 6.66652H11.7504C9.56239 6.66652 7.46397 7.53571 5.91679 9.08289C4.36962 10.6301 3.50042 12.7285 3.50042 14.9165C3.50042 17.1046 4.36962 19.203 5.91679 20.7502C7.46397 22.2973 9.56239 23.1665 11.7504 23.1665H28.2504C29.6428 23.1665 30.9782 23.7196 31.9627 24.7042C32.9473 25.6888 33.5004 27.0241 33.5004 28.4165C33.5004 29.8089 32.9473 31.1443 31.9627 32.1288C30.9782 33.1134 29.6428 33.6665 28.2504 33.6665H15.3504C14.9787 31.8455 13.944 30.2273 12.447 29.1257C10.95 28.0242 9.09734 27.5177 7.24814 27.7045C5.39893 27.8913 3.68496 28.7581 2.43852 30.1368C1.19207 31.5155 0.501953 33.3079 0.501953 35.1665C0.501953 37.0251 1.19207 38.8175 2.43852 40.1963C3.68496 41.575 5.39893 42.4417 7.24814 42.6285C9.09734 42.8153 10.95 42.3089 12.447 41.2073C13.944 40.1058 14.9787 38.4876 15.3504 36.6665H28.2504C30.4385 36.6665 32.5369 35.7973 34.0841 34.2502C35.6312 32.703 36.5004 30.6046 36.5004 28.4165C36.5004 26.2285 35.6312 24.1301 34.0841 22.5829C32.5369 21.0357 30.4385 20.1665 28.2504 20.1665H11.7504C10.358 20.1665 9.02268 19.6134 8.03811 18.6288C7.05355 17.6443 6.50042 16.3089 6.50042 14.9165C6.50042 13.5241 7.05355 12.1888 8.03811 11.2042C9.02268 10.2196 10.358 9.66652 11.7504 9.66652ZM35.0004 3.66652C35.8904 3.66652 36.7605 3.93044 37.5005 4.42491C38.2405 4.91937 38.8173 5.62218 39.1579 6.44445C39.4985 7.26671 39.5876 8.17151 39.414 9.04443C39.2403 9.91734 38.8117 10.7192 38.1824 11.3485C37.5531 11.9778 36.7512 12.4064 35.8783 12.5801C35.0054 12.7537 34.1006 12.6646 33.2784 12.324C32.4561 11.9834 31.7533 11.4066 31.2588 10.6666C30.7643 9.92657 30.5004 9.05654 30.5004 8.16652C30.5004 6.97305 30.9745 5.82845 31.8184 4.98454C32.6624 4.14063 33.8069 3.66652 35.0004 3.66652ZM8.00042 39.6665C7.11041 39.6665 6.24038 39.4026 5.50036 38.9081C4.76034 38.4137 4.18356 37.7109 3.84297 36.8886C3.50237 36.0663 3.41326 35.1615 3.58689 34.2886C3.76052 33.4157 4.18911 32.6139 4.81844 31.9845C5.44778 31.3552 6.2496 30.9266 7.12252 30.753C7.99543 30.5794 8.90023 30.6685 9.7225 31.0091C10.5448 31.3497 11.2476 31.9264 11.742 32.6665C12.2365 33.4065 12.5004 34.2765 12.5004 35.1665C12.5004 36.36 12.0263 37.5046 11.1824 38.3485C10.3385 39.1924 9.1939 39.6665 8.00042 39.6665Z" fill="#212B36"/>
</svg>
