<svg width="18" height="18" viewBox="0 0 18 18" fill="none" xmlns="http://www.w3.org/2000/svg">
<path d="M13.1701 15.7502C13.0501 15.7506 12.9318 15.7223 12.8251 15.6677L9.00009 13.6652L5.17509 15.6677C4.92169 15.8009 4.61453 15.7783 4.38341 15.6093C4.15228 15.4403 4.03751 15.1545 4.08759 14.8727L4.83759 10.6502L1.74759 7.65015C1.55113 7.4541 1.479 7.16559 1.56009 6.90015C1.64877 6.62822 1.8844 6.4304 2.16759 6.39015L6.44259 5.76765L8.32509 1.92015C8.4504 1.66141 8.71259 1.49707 9.00009 1.49707C9.28758 1.49707 9.54977 1.66141 9.67509 1.92015L11.5801 5.76015L15.8551 6.38265C16.1383 6.4229 16.3739 6.62072 16.4626 6.89265C16.5437 7.15809 16.4715 7.4466 16.2751 7.64265L13.1851 10.6427L13.9351 14.8652C13.9898 15.1523 13.8727 15.445 13.6351 15.6152C13.4993 15.7103 13.3357 15.7578 13.1701 15.7502Z" fill="#FFC81A"/>
</svg>
