<svg width="20" height="21" viewBox="0 0 20 21" fill="none" xmlns="http://www.w3.org/2000/svg">
<path d="M14.032 4.55005C14.487 4.54967 14.9376 4.64013 15.3572 4.81614C15.7768 4.99215 16.1571 5.25016 16.4757 5.57505C17.1322 6.24154 17.5002 7.13952 17.5002 8.07505C17.5002 9.01058 17.1322 9.90856 16.4757 10.5751L10.0007 17.1313L3.52571 10.5751C2.8692 9.90856 2.50121 9.01058 2.50121 8.07505C2.50121 7.13952 2.8692 6.24154 3.52571 5.57505C3.84452 5.25039 4.22482 4.99252 4.64441 4.81648C5.06399 4.64045 5.51445 4.54978 5.96946 4.54978C6.42448 4.54978 6.87493 4.64045 7.29452 4.81648C7.7141 4.99252 8.09441 5.25039 8.41321 5.57505L10.0007 7.20005L11.582 5.58755C11.8996 5.25879 12.2803 4.99746 12.7013 4.8192C13.1222 4.64094 13.5748 4.54939 14.032 4.55005ZM14.032 3.30005C13.4105 3.29952 12.7951 3.42309 12.222 3.66349C11.6489 3.90389 11.1296 4.2563 10.6945 4.70005L10.0007 5.40005L9.30696 4.70005C8.87131 4.2571 8.35184 3.90531 7.77883 3.66517C7.20583 3.42503 6.59075 3.30136 5.96946 3.30136C5.34817 3.30136 4.7331 3.42503 4.1601 3.66517C3.58709 3.90531 3.06762 4.2571 2.63196 4.70005C1.74564 5.60232 1.24902 6.81652 1.24902 8.0813C1.24902 9.34608 1.74564 10.5603 2.63196 11.4626L10.0007 18.9251L17.3695 11.4626C18.2558 10.5603 18.7524 9.34608 18.7524 8.0813C18.7524 6.81652 18.2558 5.60232 17.3695 4.70005C16.9339 4.25687 16.4145 3.90483 15.8415 3.66446C15.2685 3.4241 14.6533 3.30022 14.032 3.30005Z" fill="#919EAB"/>
</svg>
