<svg width="20" height="21" viewBox="0 0 20 21" fill="none" xmlns="http://www.w3.org/2000/svg">
<path d="M14.3751 13.2999C13.9072 13.3023 13.4459 13.4096 13.0251 13.6141C12.6043 13.8185 12.2348 14.1149 11.9438 14.4812L7.37505 11.6249C7.54156 11.0875 7.54156 10.5123 7.37505 9.97493L11.9438 7.11868C12.4075 7.69288 13.0595 8.08442 13.7843 8.22394C14.509 8.36346 15.2598 8.24195 15.9035 7.88095C16.5473 7.51994 17.0425 6.94274 17.3014 6.25159C17.5603 5.56043 17.5662 4.79994 17.3182 4.10483C17.0701 3.40971 16.5839 2.82484 15.9459 2.45383C15.3079 2.08281 14.5591 1.94959 13.8323 2.07777C13.1054 2.20595 12.4474 2.58725 11.9748 3.15413C11.5021 3.72101 11.2454 4.43689 11.2501 5.17493C11.253 5.45442 11.2951 5.73212 11.3751 5.99993L6.8063 8.85618C6.40296 8.34842 5.85164 7.97871 5.22877 7.79831C4.60591 7.6179 3.94234 7.63572 3.33006 7.84932C2.71778 8.06291 2.18711 8.46169 1.81161 8.99037C1.43611 9.51906 1.23438 10.1515 1.23438 10.7999C1.23437 11.4484 1.43611 12.0808 1.81161 12.6095C2.18711 13.1382 2.71778 13.537 3.33006 13.7506C3.94234 13.9641 4.60591 13.982 5.22877 13.8016C5.85164 13.6212 6.40296 13.2514 6.8063 12.7437L11.3751 15.5999C11.2951 15.8678 11.253 16.1454 11.2501 16.4249C11.2501 17.043 11.4333 17.6472 11.7767 18.1611C12.1201 18.675 12.6081 19.0755 13.1792 19.3121C13.7502 19.5486 14.3785 19.6105 14.9847 19.4899C15.5909 19.3693 16.1477 19.0717 16.5848 18.6346C17.0218 18.1976 17.3194 17.6408 17.44 17.0346C17.5606 16.4284 17.4987 15.8001 17.2622 15.229C17.0257 14.658 16.6251 14.17 16.1112 13.8266C15.5973 13.4832 14.9931 13.2999 14.3751 13.2999ZM14.3751 3.29993C14.7459 3.29993 15.1084 3.4099 15.4167 3.61593C15.7251 3.82195 15.9654 4.11479 16.1073 4.4574C16.2492 4.80001 16.2864 5.17701 16.214 5.54073C16.1417 5.90444 15.9631 6.23853 15.7009 6.50076C15.4387 6.76298 15.1046 6.94156 14.7408 7.01391C14.3771 7.08625 14.0001 7.04912 13.6575 6.90721C13.3149 6.76529 13.0221 6.52497 12.816 6.21663C12.61 5.90828 12.5001 5.54577 12.5001 5.17493C12.5001 4.67765 12.6976 4.20074 13.0492 3.84911C13.4009 3.49748 13.8778 3.29993 14.3751 3.29993ZM4.37505 12.6749C4.00421 12.6749 3.6417 12.565 3.33336 12.3589C3.02502 12.1529 2.78469 11.8601 2.64278 11.5175C2.50087 11.1749 2.46373 10.7979 2.53608 10.4341C2.60843 10.0704 2.78701 9.73633 3.04923 9.47411C3.31145 9.21188 3.64555 9.03331 4.00926 8.96096C4.37297 8.88861 4.74997 8.92574 5.09259 9.06766C5.4352 9.20957 5.72803 9.4499 5.93406 9.75824C6.14009 10.0666 6.25005 10.4291 6.25005 10.7999C6.25005 11.2972 6.05251 11.7741 5.70088 12.1258C5.34925 12.4774 4.87234 12.6749 4.37505 12.6749ZM14.3751 18.2999C14.0042 18.2999 13.6417 18.19 13.3334 17.9839C13.025 17.7779 12.7847 17.4851 12.6428 17.1425C12.5009 16.7999 12.4637 16.4229 12.5361 16.0591C12.6084 15.6954 12.787 15.3613 13.0492 15.0991C13.3115 14.8369 13.6455 14.6583 14.0093 14.586C14.373 14.5136 14.75 14.5507 15.0926 14.6927C15.4352 14.8346 15.728 15.0749 15.9341 15.3832C16.1401 15.6916 16.2501 16.0541 16.2501 16.4249C16.2501 16.9222 16.0525 17.3991 15.7009 17.7508C15.3492 18.1024 14.8723 18.2999 14.3751 18.2999Z" fill="#919EAB"/>
</svg>
