<svg width="20" height="21" viewBox="0 0 20 21" fill="none" xmlns="http://www.w3.org/2000/svg">
<path d="M16.6687 3.2998H3.33125C3.11129 3.30144 2.90081 3.38954 2.74527 3.54508C2.58974 3.70062 2.50164 3.9111 2.5 4.13105V17.4686C2.50164 17.6885 2.58974 17.899 2.74527 18.0545C2.90081 18.2101 3.11129 18.2982 3.33125 18.2998H10.5125V12.4998H8.5625V10.2311H10.5125V8.5623C10.5125 6.6248 11.6937 5.56855 13.4312 5.56855C14.0125 5.56855 14.5938 5.56855 15.175 5.65605V7.6748H13.9813C13.0375 7.6748 12.8562 8.1248 12.8562 8.78105V10.2248H15.1062L14.8125 12.4936H12.8562V18.2998H16.6687C16.8887 18.2982 17.0992 18.2101 17.2547 18.0545C17.4103 17.899 17.4984 17.6885 17.5 17.4686V4.13105C17.4984 3.9111 17.4103 3.70062 17.2547 3.54508C17.0992 3.38954 16.8887 3.30144 16.6687 3.2998Z" fill="#1877F2"/>
</svg>
