<svg width="20" height="21" viewBox="0 0 20 21" fill="none" xmlns="http://www.w3.org/2000/svg">
<path d="M14.0037 7.69633C14.5007 7.69633 14.9037 7.29338 14.9037 6.79633C14.9037 6.29927 14.5007 5.89633 14.0037 5.89633C13.5066 5.89633 13.1037 6.29927 13.1037 6.79633C13.1037 7.29338 13.5066 7.69633 14.0037 7.69633Z" fill="#E02D69"/>
<path d="M10.0004 6.94841C9.23866 6.94841 8.49403 7.17429 7.86068 7.59748C7.22732 8.02068 6.73368 8.62218 6.44218 9.32593C6.15068 10.0297 6.07441 10.8041 6.22302 11.5512C6.37162 12.2982 6.73843 12.9845 7.27705 13.5231C7.81568 14.0617 8.50193 14.4286 9.24902 14.5772C9.99611 14.7258 10.7705 14.6495 11.4742 14.358C12.178 14.0665 12.7795 13.5728 13.2027 12.9395C13.6259 12.3061 13.8518 11.5615 13.8518 10.7998C13.8518 9.77834 13.446 8.79873 12.7237 8.07645C12.0014 7.35418 11.0218 6.94841 10.0004 6.94841ZM10.0004 13.2998C9.50593 13.2998 9.02258 13.1532 8.61146 12.8785C8.20034 12.6038 7.87991 12.2133 7.69069 11.7565C7.50147 11.2997 7.45196 10.797 7.54842 10.3121C7.64489 9.82711 7.88299 9.38165 8.23262 9.03202C8.58225 8.68239 9.02771 8.44428 9.51266 8.34782C9.99761 8.25136 10.5003 8.30087 10.9571 8.49009C11.4139 8.67931 11.8044 8.99974 12.0791 9.41086C12.3538 9.82198 12.5004 10.3053 12.5004 10.7998C12.5004 11.4628 12.237 12.0987 11.7682 12.5676C11.2993 13.0364 10.6634 13.2998 10.0004 13.2998Z" fill="#E02D69"/>
<path d="M10 4.65118C12.0026 4.65118 12.2398 4.6588 13.0306 4.69493C13.5062 4.70059 13.9773 4.78795 14.4233 4.95318C14.7467 5.07798 15.0405 5.2691 15.2856 5.51424C15.5308 5.75938 15.7219 6.05312 15.8467 6.37655C16.0119 6.82256 16.0993 7.29365 16.1049 7.76924C16.141 8.56005 16.1487 8.7973 16.1487 10.7999C16.1487 12.8024 16.1411 13.0397 16.1049 13.8305C16.0993 14.3061 16.0119 14.7772 15.8467 15.2232C15.7219 15.5466 15.5308 15.8404 15.2856 16.0855C15.0405 16.3306 14.7467 16.5218 14.4233 16.6466C13.9773 16.8118 13.5062 16.8991 13.0306 16.9048C12.2399 16.9409 12.0027 16.9486 10 16.9486C7.99725 16.9486 7.76012 16.9409 6.96937 16.9048C6.49378 16.8991 6.02269 16.8118 5.57669 16.6466C5.25325 16.5218 4.95951 16.3306 4.71437 16.0855C4.46923 15.8404 4.27812 15.5466 4.15331 15.2232C3.98808 14.7772 3.90072 14.3061 3.89506 13.8305C3.859 13.0397 3.85131 12.8024 3.85131 10.7999C3.85131 8.7973 3.85894 8.56005 3.89506 7.76924C3.90072 7.29365 3.98808 6.82256 4.15331 6.37655C4.27811 6.05311 4.46922 5.75936 4.71436 5.51421C4.95951 5.26906 5.25324 5.07793 5.57669 4.95312C6.02269 4.78788 6.49378 4.70053 6.96937 4.69487C7.76019 4.6588 7.99744 4.65118 10 4.65118ZM10 3.2998C7.96312 3.2998 7.70769 3.30843 6.90775 3.34493C6.28566 3.35742 5.67018 3.4753 5.0875 3.69355C4.58921 3.88625 4.13667 4.18093 3.7589 4.5587C3.38112 4.93648 3.08645 5.38901 2.89375 5.8873C2.67546 6.47009 2.55758 7.08567 2.54512 7.70787C2.50862 8.50749 2.5 8.76293 2.5 10.7998C2.5 12.8367 2.50862 13.0921 2.54512 13.8921C2.55759 14.5143 2.67547 15.1298 2.89375 15.7126C3.08645 16.2109 3.38112 16.6634 3.7589 17.0412C4.13667 17.419 4.58921 17.7137 5.0875 17.9064C5.67028 18.1247 6.28586 18.2425 6.90806 18.255C7.70769 18.2912 7.96312 18.2998 10 18.2998C12.0369 18.2998 12.2923 18.2912 13.0922 18.2547C13.7144 18.2422 14.33 18.1243 14.9128 17.9061C15.4111 17.7134 15.8636 17.4187 16.2414 17.0409C16.6192 16.6631 16.9139 16.2106 17.1066 15.7123C17.3248 15.1295 17.4427 14.5139 17.4552 13.8917C17.4914 13.0921 17.5 12.8367 17.5 10.7998C17.5 8.76293 17.4914 8.50749 17.4549 7.70755C17.4424 7.08546 17.3245 6.46999 17.1062 5.8873C16.9135 5.38907 16.6188 4.9366 16.2411 4.55888C15.8633 4.18116 15.4108 3.88653 14.9125 3.69387C14.3297 3.47558 13.7141 3.3577 13.0919 3.34524C12.2923 3.30843 12.0369 3.2998 10 3.2998Z" fill="#E02D69"/>
</svg>
