<svg width="20" height="21" viewBox="0 0 20 21" fill="none" xmlns="http://www.w3.org/2000/svg">
<path d="M16.375 3.2998H3.625C3 3.2998 2.5 3.7998 2.5 4.3623V17.1748C2.5 17.7373 3 18.2373 3.625 18.2373H16.375C17 18.2373 17.5 17.7373 17.5 17.1748V4.3623C17.5 3.7998 17 3.2998 16.375 3.2998ZM6.9375 16.0498H4.75V8.9248H6.9375V16.0498ZM5.875 7.9248C5.1875 7.9248 4.5625 7.3623 4.5625 6.6123C4.5625 5.8623 5.125 5.2998 5.875 5.2998C6.5625 5.2998 7.1875 5.8623 7.1875 6.6123C7.1875 7.3623 6.5625 7.9248 5.875 7.9248ZM15.3125 15.9873H13.125V12.4873C13.125 11.6748 13.125 10.5498 11.9375 10.5498C10.75 10.5498 10.625 11.4873 10.625 12.3623V15.9248H8.4375V8.9248H10.5V9.8623H10.5625C10.875 9.2998 11.625 8.6748 12.6875 8.6748C14.9375 8.6748 15.375 10.1748 15.375 12.1123V15.9873H15.3125Z" fill="#007EBB"/>
</svg>
