<svg width="20" height="21" viewBox="0 0 20 21" fill="none" xmlns="http://www.w3.org/2000/svg">
<path d="M7.45 16.3874C8.50571 16.394 9.55224 16.191 10.5289 15.79C11.5055 15.3891 12.3928 14.7982 13.1393 14.0517C13.8858 13.3052 14.4767 12.4179 14.8777 11.4412C15.2786 10.4646 15.4816 9.41809 15.475 8.36238C15.475 8.23738 15.475 8.11863 15.475 7.99363C16.0222 7.59268 16.4959 7.09998 16.875 6.53738C16.3597 6.76275 15.8144 6.91222 15.2563 6.98113C15.8481 6.62849 16.2921 6.07342 16.5063 5.41863C15.9547 5.74953 15.3499 5.98215 14.7188 6.10613C14.2937 5.65323 13.7313 5.35304 13.1184 5.25199C12.5056 5.15095 11.8765 5.25469 11.3286 5.54716C10.7806 5.83963 10.3444 6.30453 10.0873 6.86992C9.83014 7.43532 9.76652 8.06969 9.90625 8.67488C8.78502 8.61984 7.68794 8.32926 6.68647 7.82207C5.685 7.31487 4.80159 6.60243 4.09375 5.73113C3.73683 6.35061 3.62864 7.08258 3.7911 7.77883C3.95356 8.47508 4.37452 9.08358 4.96875 9.48113C4.53038 9.46422 4.10216 9.34432 3.71875 9.13113V9.16238C3.71485 9.80977 3.93295 10.4389 4.33669 10.945C4.74043 11.4511 5.30542 11.8036 5.9375 11.9436C5.52977 12.0533 5.10268 12.0704 4.6875 11.9936C4.87049 12.5457 5.2198 13.0277 5.68753 13.3735C6.15526 13.7193 6.71849 13.9119 7.3 13.9249C6.30576 14.7252 5.07006 15.1657 3.79375 15.1749C3.56997 15.1684 3.34672 15.1496 3.125 15.1186C4.41685 15.9417 5.91825 16.3756 7.45 16.3686" fill="#00AAEC"/>
</svg>
