<svg width="80" height="81" viewBox="0 0 80 81" fill="none" xmlns="http://www.w3.org/2000/svg">
<g clip-path="url(#clip0_1278_49570)">
<path d="M31.9999 52.5L9.33325 36.7265L1.33325 31.1666V73.8333C1.33325 76.7786 3.72127 79.1666 6.66658 79.1666L26.9335 57.8333L31.9999 52.5Z" fill="#FA541C" fill-opacity="0.48"/>
<path d="M48 52.5L53.0664 57.8333L73.3333 79.1666C76.2787 79.1666 78.6667 76.7786 78.6667 73.8333V31.1666L70.6667 36.7265L48 52.5Z" fill="#FA541C" fill-opacity="0.48"/>
<path d="M9.33325 25.8334H6.66658C3.72127 25.8334 1.33325 28.2214 1.33325 31.1667L9.33325 36.7266V25.8334Z" fill="#FA541C" fill-opacity="0.48"/>
<path d="M73.3334 25.8334H70.6667V36.7266L78.6668 31.1667C78.6668 28.2214 76.2787 25.8334 73.3334 25.8334Z" fill="#FA541C" fill-opacity="0.48"/>
<path d="M48.0001 52.5H32.0001L26.9337 57.8333L6.66675 79.1667H73.3334L53.0665 57.8333L48.0001 52.5Z" fill="#FA541C" fill-opacity="0.48"/>
<path d="M62.6667 12.5H70.6667L60 1.83337V9.83337C60.0046 11.3041 61.196 12.4955 62.6667 12.5Z" fill="#FA541C" fill-opacity="0.48"/>
<path d="M73.3333 24.5H72V12.5C72 12.4707 71.985 12.4466 71.9837 12.4173C71.9759 12.2975 71.9518 12.179 71.9121 12.0651C71.8971 12.0228 71.8867 11.9811 71.8678 11.9401C71.8053 11.7995 71.7181 11.6706 71.6107 11.5599L60.944 0.893229C60.8327 0.785807 60.7031 0.698568 60.5612 0.636068C60.5228 0.617188 60.4811 0.606771 60.4414 0.591797C60.3249 0.550781 60.2031 0.526693 60.0801 0.520182C60.0508 0.514974 60.028 0.5 60 0.5H13.3333C10.388 0.5 8 2.88802 8 5.83333V24.5H6.66667C2.98633 24.5046 0.0045573 27.4863 0 31.1667V73.8333C0.0045573 77.5137 2.98633 80.4954 6.66667 80.5H73.3333C77.0137 80.4954 79.9954 77.5137 80 73.8333V31.1667C79.9954 27.4863 77.0137 24.5046 73.3333 24.5ZM32.5736 53.8333H47.4264L70.2266 77.8333H9.77344L32.5736 53.8333ZM73.3333 27.1667C75.2858 27.166 76.9531 28.5749 77.2786 30.5L72 34.1758V27.1667H73.3333ZM67.4479 11.1667H62.6667C61.9303 11.1667 61.3333 10.5697 61.3333 9.83333V5.05208L67.4479 11.1667ZM10.6667 5.83333C10.6667 4.36068 11.8607 3.16667 13.3333 3.16667H58.6667V9.83333C58.6667 12.0423 60.4577 13.8333 62.6667 13.8333H69.3333V36.0293L47.5814 51.1667H32.4186L10.6667 36.0293V5.83333ZM6.66667 27.1667H8V34.1758L2.72135 30.5065C3.04362 28.5788 4.71224 27.1667 6.66667 27.1667ZM2.66667 73.8333V33.7174L29.9642 52.7077L6.13346 77.7975C4.14844 77.5306 2.66667 75.8359 2.66667 73.8333ZM73.8665 77.7975L50.0358 52.7077L77.3333 33.7174V73.8333C77.3333 75.8359 75.8516 77.5306 73.8665 77.7975Z" fill="#FA541C"/>
<path d="M28.0001 11.1667H52.0001C52.7364 11.1667 53.3334 10.5697 53.3334 9.83333C53.3334 9.09701 52.7364 8.5 52.0001 8.5H28.0001C27.2638 8.5 26.6667 9.09701 26.6667 9.83333C26.6667 10.5697 27.2638 11.1667 28.0001 11.1667Z" fill="#FA541C"/>
<path d="M16 17.8333C16 18.5697 16.597 19.1667 17.3333 19.1667H62.6667C63.403 19.1667 64 18.5697 64 17.8333C64 17.097 63.403 16.5 62.6667 16.5H17.3333C16.597 16.5 16 17.097 16 17.8333Z" fill="#FA541C"/>
<path d="M62.6667 24.5H17.3333C16.597 24.5 16 25.097 16 25.8333C16 26.5697 16.597 27.1667 17.3333 27.1667H62.6667C63.403 27.1667 64 26.5697 64 25.8333C64 25.097 63.403 24.5 62.6667 24.5Z" fill="#FA541C"/>
<path d="M62.6667 32.5H17.3333C16.597 32.5 16 33.097 16 33.8333C16 34.5697 16.597 35.1667 17.3333 35.1667H62.6667C63.403 35.1667 64 34.5697 64 33.8333C64 33.097 63.403 32.5 62.6667 32.5Z" fill="#FA541C"/>
<path d="M54.6667 40.5H25.3333C24.597 40.5 24 41.097 24 41.8333C24 42.5697 24.597 43.1667 25.3333 43.1667H54.6667C55.403 43.1667 56 42.5697 56 41.8333C56 41.097 55.403 40.5 54.6667 40.5Z" fill="#FA541C"/>
<path d="M14.6666 13.8334C15.4029 13.8334 15.9999 13.2364 15.9999 12.5V9.83337C15.9999 9.09705 16.5969 8.50004 17.3333 8.50004H19.9999C20.7362 8.50004 21.3333 7.90304 21.3333 7.16671C21.3333 6.43038 20.7362 5.83337 19.9999 5.83337H17.3333C15.1243 5.83337 13.3333 7.62439 13.3333 9.83337V12.5C13.3333 13.2364 13.9303 13.8334 14.6666 13.8334Z" fill="#FA541C"/>
</g>
<defs>
<clipPath id="clip0_1278_49570">
<rect width="80" height="80" fill="white" transform="translate(0 0.5)"/>
</clipPath>
</defs>
</svg>
